<svg xmlns="http://www.w3.org/2000/svg" width="160.037" height="62.263" viewBox="0 0 160.037 62.263">
  <g id="Layer_x0020_1" transform="translate(-0.007 0)">
    <g id="_1588193393712" transform="translate(0.007 0)">
      <path id="Path_1" data-name="Path 1" d="M602.98,1827.025h3.748v1.655H602.98Zm11.025-5.29h7.987l1.094,3.072-1.252.434a4.722,4.722,0,0,0-.582-1.011,2.418,2.418,0,0,0-.658-.57,2.316,2.316,0,0,0-.823-.3,7.5,7.5,0,0,0-1.054-.049h-1.19v2.56h.611a1.2,1.2,0,0,0,.545-.1.649.649,0,0,0,.285-.271,1.262,1.262,0,0,0,.087-.554v-.514H620.3v4.314h-1.245v-.622a1.147,1.147,0,0,0-.049-.394.678.678,0,0,0-.172-.269.613.613,0,0,0-.255-.144,2.076,2.076,0,0,0-.516-.042h-.535v2.025a1.336,1.336,0,0,0,.061.5.406.406,0,0,0,.2.191,1.551,1.551,0,0,0,.533.061h.394v1.329h-4.71v-1.329h.314a1.172,1.172,0,0,0,.684-.134.691.691,0,0,0,.163-.542v-5.544a1.285,1.285,0,0,0-.064-.5.389.389,0,0,0-.207-.189,1.775,1.775,0,0,0-.575-.061h-.314v-1.33Zm19.116,0H635.3l2.892,7.44a1.911,1.911,0,0,0,.417.726,1.181,1.181,0,0,0,.672.137v1.33h-4.554v-1.33l.276-.007a1,1,0,0,0,.53-.1.288.288,0,0,0,.151-.245,2.027,2.027,0,0,0-.132-.512l-.295-.875h-2.918l-.361.973a1.659,1.659,0,0,0-.111.408.294.294,0,0,0,.08.2.471.471,0,0,0,.259.13,4.134,4.134,0,0,0,.653.028v1.33h-3.734v-1.33a1.667,1.667,0,0,0,.526-.061.672.672,0,0,0,.271-.186,1.74,1.74,0,0,0,.238-.462l2.963-7.593Zm-.278,5.191h1.909l-.933-2.635Zm20.294-5.191.835,3.227-1.287.365a4.691,4.691,0,0,0-1.457-1.685,3.117,3.117,0,0,0-1.735-.535,1.586,1.586,0,0,0-.936.243.668.668,0,0,0-.342.537.854.854,0,0,0,.311.63,2.736,2.736,0,0,0,1.12.521l1.851.537a4.646,4.646,0,0,1,2.195,1.172,2.523,2.523,0,0,1,.648,1.716,2.691,2.691,0,0,1-.995,2.11,4.1,4.1,0,0,1-2.76.95,4.94,4.94,0,0,1-1.41-.191,5.158,5.158,0,0,1-1.339-.656l-.3.691H646.5l-.679-3.734,1.287-.311a4.546,4.546,0,0,0,1.417,1.907,3.323,3.323,0,0,0,2.115.766,2.424,2.424,0,0,0,.86-.132,1.111,1.111,0,0,0,.514-.368.805.805,0,0,0,.172-.486.868.868,0,0,0-.4-.712,4.76,4.76,0,0,0-1.419-.589l-1.608-.469a7.1,7.1,0,0,1-.99-.389,3.739,3.739,0,0,1-.962-.6,2.475,2.475,0,0,1-.554-.8,2.43,2.43,0,0,1-.221-1.023,2.507,2.507,0,0,1,.424-1.41,3,3,0,0,1,1.278-1.044,4.383,4.383,0,0,1,1.886-.4,4.118,4.118,0,0,1,2.256.639l.269-.483h.988Zm8.089,0h4.7v1.33h-.431a1.1,1.1,0,0,0-.488.073.408.408,0,0,0-.186.208,1.97,1.97,0,0,0-.054.584v1.681h3.522V1823.8a1.694,1.694,0,0,0-.04-.45.374.374,0,0,0-.184-.229,1.69,1.69,0,0,0-.575-.061h-.361v-1.33h4.7v1.33h-.393a1.368,1.368,0,0,0-.531.066.367.367,0,0,0-.184.193,2.058,2.058,0,0,0-.052.6v5.226a1.8,1.8,0,0,0,.066.625.388.388,0,0,0,.2.2,1.92,1.92,0,0,0,.617.059h.276v1.329h-4.7v-1.329h.306a1.677,1.677,0,0,0,.584-.068.392.392,0,0,0,.21-.2,1.9,1.9,0,0,0,.059-.615v-2.042h-3.522v2.042a2.638,2.638,0,0,0,.04.6.382.382,0,0,0,.215.229,2.01,2.01,0,0,0,.582.054h.323v1.329h-4.7v-1.329h.32a1.61,1.61,0,0,0,.561-.068.417.417,0,0,0,.219-.193,1.558,1.558,0,0,0,.059-.547v-5.238a2.107,2.107,0,0,0-.059-.639.425.425,0,0,0-.184-.219,1.159,1.159,0,0,0-.486-.068h-.431v-1.33Zm17.631,0h4.7v1.33h-.429a1.185,1.185,0,0,0-.493.066.393.393,0,0,0-.179.207,1.615,1.615,0,0,0-.059.542v5.335a2.07,2.07,0,0,0,.047.561.329.329,0,0,0,.167.179.906.906,0,0,0,.434.083h.512v1.33h-4.7v-1.33h.382a1.5,1.5,0,0,0,.535-.059.381.381,0,0,0,.184-.186,1.4,1.4,0,0,0,.059-.509v-5.356a1.832,1.832,0,0,0-.059-.589.446.446,0,0,0-.2-.219,1.242,1.242,0,0,0-.471-.054h-.431v-1.33Zm16.912-.155a5.082,5.082,0,0,1,3.713,1.391,4.8,4.8,0,0,1,1.419,3.576,5.165,5.165,0,0,1-.648,2.6,4.457,4.457,0,0,1-1.794,1.754,5.717,5.717,0,0,1-2.758.618,5.172,5.172,0,0,1-3.5-1.172,4.724,4.724,0,0,1-1.643-3.776,4.8,4.8,0,0,1,1.44-3.6,5.182,5.182,0,0,1,3.767-1.4Zm.028,1.528a2.107,2.107,0,0,0-1.747.82,4.179,4.179,0,0,0-.816,2.668,4.03,4.03,0,0,0,.759,2.586,2.254,2.254,0,0,0,3.467,0,4.082,4.082,0,0,0,.766-2.6,4.952,4.952,0,0,0-.328-1.923,2.575,2.575,0,0,0-.889-1.165,2.1,2.1,0,0,0-1.214-.386Zm12.2-1.372h3.894l2.824,5.622v-3.442a1.794,1.794,0,0,0-.05-.554.426.426,0,0,0-.186-.231,1.031,1.031,0,0,0-.455-.066h-.469v-1.33h3.974v1.33h-.439a1.085,1.085,0,0,0-.471.075.43.43,0,0,0-.2.207,1.851,1.851,0,0,0-.054.566v7.454h-1.992l-3.566-7.1v4.969a1.706,1.706,0,0,0,.052.547.388.388,0,0,0,.184.186,1.131,1.131,0,0,0,.464.068h.46v1.329h-3.974v-1.329h.412a1.244,1.244,0,0,0,.469-.059.432.432,0,0,0,.2-.2.993.993,0,0,0,.075-.436v-5.528a1.2,1.2,0,0,0-.068-.467.457.457,0,0,0-.186-.215.833.833,0,0,0-.391-.066h-.514v-1.33Zm16.638,5.29h3.748v1.655h-3.748Z" transform="translate(-585.661 -1769.26)" fill="#e31e24"/>
      <path id="Path_2" data-name="Path 2" d="M126.766,33.714c12.247,1.874,26.015-6.608,18.261-16.626-3.893-5.03-14.01-3.408-18.693-2.941-1.54.2-.911-.049-2.316-.62-1.976-.8-2.656.268-3.876,1.268a4.756,4.756,0,0,1-1.86.495,49.48,49.48,0,0,1,4.554-5.966c1.271-1.285,3.536-2.6.672-5.211-1.442-1.313-2.636-.146-5.241,1.495l-4.924,3.161c-3.092,2.1-11.136,8.6-13.665,11.405A28.687,28.687,0,0,1,95.1,24.2c.618-2.868,3.581-6.3,3.807-9.067.243-2.972-4.582-4.939-5.734-.427-1.008,3.95-1.982,5.541-3.56,9.251-1.06,2.493-3.192,7.52-1.777,9.415.635.851,2.539,2.32,3.67,1.421A37.053,37.053,0,0,0,94.3,31.656c2.547-3.314,10.572-10.352,15.037-14.3a21.3,21.3,0,0,1,2.973-2.277c-.468,1.409-13.487,23.718-13.6,23.782-6.417-.051-14.473-.294-20.845.264.1-2.384,6.307-14.249,7.616-16.741,1.536-2.924,6.251-9.437,5.826-11.338-3.135-5.2-4.274-1.431-5.122-.045-2.079,3.4-7.191,12.785-9.689,14.965-.606.528-2.14,1.2-2.343.146-.421-2.189.259-5.362.711-7.982.5-2.878,1.474-5.953-.032-7.908-2.268-3.2-5.09-2.944-5.982-1.865-.87,1.052,2.456,3.744,2.26,5.032-.227,1.5-1.016,7.721-1.416,8.667-4.613-1.062-8.514.632-11.994,3.156-.037-2.076,5.4-17.09,7.408-19.5a1.809,1.809,0,0,0,.2-2.586A3.859,3.859,0,0,0,62.53,1.5c-2.629.327-8.95,19.667-10.993,27.485-1.241,4.751-3.161,9.758,3.149,6.975,5.389-.851,14.71-4.008,15.478-8.782.441,3.066.981,4.477,5.545,4.483l-3.1,7.758c-4.005.2-26.831,2.9-32.111,3.808-1.687.291-6.2.993-7.728,1.446-3.322.979-2.291,5.9,3.774,4.162l2.741-.787c6.006-1.306,26.06-4.787,31.948-4.3-1.012,4.97-3.4,9.382.841,10.538a1.858,1.858,0,0,0,2.114-.54c.806-.972.477-1.552.463-2.6-.03-2.237,1.035-5.582,1.73-7.737,4.376-.6,15.3-.445,19.783.041a49.123,49.123,0,0,1-3.383,6.441c-1.105,1.97-2.147,4.221-3.128,6.281-.617,1.294-.912,2.585.383,3.775a4.494,4.494,0,0,0,2.977,1.272c2.671-.175,1.752-3.408,2.572-5.36,1.9-4.52,3.953-8.062,6.062-12.148,4.915.349,7.566.227,12.208,1.566,1.726.5,2.581.16,3.07-1.542-.105-5.136-2.117-3.882-4.408-3.733l-8.357-.683c.436-1.795,5.8-11.173,10.877-19.11a3.549,3.549,0,0,0,1.157.3c-2.326,6.323.56,11.672,10.572,13.2Zm1.4-26.231V4.769H127.15V4.2h2.665v.566h-.984V7.483Zm2.034,0V4.2h1.033l.594,2.258.6-2.258h1.031V7.483h-.632V4.864l-.705,2.619h-.591l-.705-2.619V7.483H130.2Zm28.07,7.376c-4.634,8.322-7.684,14.756-10.337,18.847-2.556,3.94-4.469,4.1-2.813-.443a176.654,176.654,0,0,1,8.221-19.467,31.752,31.752,0,0,1,1.844-3.2c1.89-2.623,7.774,2.558,3.085,4.264ZM147.9,40.867c.1,3.124-2.8,2.642-4.769,2.641-1.39,0-4.085-.487-5.011-2.239-.478-.9.725-3.7,3.275-3.406C143.782,38.135,147.632,38.367,147.9,40.867ZM40.8,20.663c.755-.339.078-.13.729-.221-1.486,2.724-11.083,10.888-10.04,17.332.412,2.552,3.56,5.751,7.205,1.957,2.771-2.884,5.266-7.436,5.881-8.046.526,2.163.238,4,.7,5.273.34.934,1.541,2.071,2.725,1.679.868-.288,1.928-1.344,1.62-4.183a33.856,33.856,0,0,1,.5-10.524c.624-3.147,3.723-7.609-.616-9.591a5.183,5.183,0,0,0-2.8-.48,28.132,28.132,0,0,0-8.977,3.259,4.562,4.562,0,0,0-1.46,1.041c-1.695,1.924,3.749,3.123,4.539,2.5ZM39.6,31.326c-1.759,2.356-2.545,3.441-2.9,3.028-.3-.35.569-2.028,2.159-4.124v0c1.759-2.356,2.545-3.442,2.9-3.029.3.35-.569,2.028-2.16,4.124v0ZM31.17,18.6c-1.691-.178-3.88.178-5.036-.073l12.193-7.171c.728-.351,1.461-.381,1.776-1.6.852-3.294-3.332-3.862-5.728-3.973-4.806-.221-13.381.128-17.216-1.129C17.12,2.2,17.427,1.527,15.1.361c-2.584-1.3-3.367,1.222-3.994,2.446C7.563,1.613,2.876,1.34,6.823,5.855A4.713,4.713,0,0,0,8.639,7.083c.429.194.748.264,1.161.427.715.281.8.385.952.708.215.569-1.084,8.755-1.291,10.2-.838,5.835-.082,4.944-4.148,7.7a45.04,45.04,0,0,0-4.98,3.865c-1.111,1.59.738,4.791,3.76,4.177,1.464-.3,2.576-1.741,3.832-1.87.448,2.741-.42,7.62,1.262,10.233-.784,1.121-1.673,1.813-.586,3.3.024.032.059.075.083.107.107.143.106.158.243.323,1.246,1.513,3.149,1.459,3.742.791C18.053,40.983,24.5,36.162,30.7,30.933c1.922-1.709,5.57-5.348,5.959-7.928.437-2.905-3.13-4.16-5.485-4.408ZM15.55,8.828a63.427,63.427,0,0,0-1.884,10.79c1.186-.157,6.907-4.118,8.174-4.858L27.915,11.2a5.4,5.4,0,0,0,2.054-1.452c-2.32-.228-4.881-.058-7.146-.265-2.358-.215-5.059-.679-7.273-.654ZM13.613,38.692c.514-.453,1.042-.9,1.533-1.393l4.743-4.011c1-.713,1.553-1.209,2.411-1.938l4.578-4.019c.939-.886,3.853-3.464,4.135-4.912-2.661-.773-8.4,1.214-10.957,2.067a34.2,34.2,0,0,0-3.274,1.492c-4.775,2.2-4.173,1.97-4.381,5.227,0,1.142-.263,7.076.137,7.672.442.66.59.24,1.074-.185Zm48.474-9.905c-2.615,1.344-3.8,1.974-3.937,1.447-.118-.447,1.4-1.573,3.751-2.757v0c2.615-1.344,3.8-1.974,3.937-1.447.117.447-1.4,1.573-3.751,2.756Zm61.519-.007c5.356,1.493,12.819,2.053,16.089-2.023,5.953-7.418-2.475-10.556-11.163-9.2-4.491.606-6.451,1.975-7.67,4.372-1.951,3.834-1.183,5.76,2.743,6.856Z" transform="translate(-0.007 0)" fill="#1c1b17" fill-rule="evenodd"/>
    </g>
  </g>
</svg>
